ply
format ascii 1.0
comment : 
comment : MagicaVoxel @ Ephtracy
element vertex 30
property float x
property float y
property float z
property uchar red
property uchar green
property uchar blue
element face 24
property list uchar int vertex_index
end_header
-8 -9 31 178 238 255
-7 -9 31 178 238 255
-7 -8 31 178 238 255
-8 -8 31 178 238 255
-7.5 -8.5 31 178 238 255
-7 -9 30 134 179 224
-7 -8 30 134 179 224
-7 -8 31 135 180 225
-7 -9 31 135 180 225
-7 -8.5 30.5 134 179 224
-8 -8 30 128 171 214
-8 -8 31 129 172 216
-7 -8 31 129 172 216
-7 -8 30 128 171 214
-7.5 -8 30.5 129 172 215
-8 -9 30 41 55 69
-8 -8 30 41 55 69
-7 -8 30 41 55 69
-7 -9 30 41 55 69
-7.5 -8.5 30 41 55 69
-8 -9 30 136 182 228
-8 -9 31 137 183 229
-8 -8 31 138 184 230
-8 -8 30 136 182 227
-8 -8.5 30.5 137 183 228
-8 -9 30 143 190 238
-7 -9 30 142 190 238
-7 -9 31 143 191 239
-8 -9 31 144 192 240
-7.5 -9 30.5 143 191 239
3 4 0 1
3 4 1 2
3 4 2 3
3 4 3 0
3 9 5 6
3 9 6 7
3 9 7 8
3 9 8 5
3 14 10 11
3 14 11 12
3 14 12 13
3 14 13 10
3 19 15 16
3 19 16 17
3 19 17 18
3 19 18 15
3 24 20 21
3 24 21 22
3 24 22 23
3 24 23 20
3 29 25 26
3 29 26 27
3 29 27 28
3 29 28 25
